<svg width="36" height="36" viewBox="0 0 36 36" fill="none" xmlns="http://www.w3.org/2000/svg">
<g clip-path="url(#clip0_1865_2)">
<mask id="mask0_1865_2" style="mask-type:luminance" maskUnits="userSpaceOnUse" x="0" y="0" width="36" height="36">
<path d="M0 0H36V36H0V0Z" fill="white"/>
</mask>
<g mask="url(#mask0_1865_2)">
<path d="M18 0C33 0 36 3 36 18C36 33 33 36 18 36C3 36 0 33 0 18C0 3 3 0 18 0Z" fill="url(#paint0_linear_1865_2)"/>
<path fill-rule="evenodd" clip-rule="evenodd" d="M18 9.3915C20.8035 9.3915 21.135 9.40275 22.2427 9.453C23.2665 9.4995 23.8222 9.6705 24.1927 9.8145C24.6825 10.005 25.0328 10.2323 25.4003 10.5998C25.7678 10.9673 25.995 11.3168 26.1855 11.8073C26.3288 12.177 26.5005 12.7335 26.5463 13.7573C26.5973 14.8643 26.6078 15.1957 26.6078 18C26.6078 20.8035 26.5973 21.135 26.5463 22.2427C26.4998 23.2665 26.3287 23.8222 26.1847 24.1927C26.0167 24.6488 25.7486 25.0613 25.4003 25.4003C25.0328 25.7678 24.6825 25.995 24.1927 26.1855C23.8222 26.3288 23.2665 26.5005 22.2427 26.5463C21.1357 26.5973 20.8035 26.6078 18 26.6078C15.1957 26.6078 14.8643 26.5973 13.7573 26.5463C12.7335 26.4998 12.177 26.3287 11.8073 26.1847C11.3513 26.0166 10.9387 25.7486 10.5998 25.4003C10.2509 25.0616 9.98254 24.649 9.8145 24.1927C9.6705 23.8222 9.4995 23.2665 9.453 22.2427C9.40275 21.1357 9.3915 20.8035 9.3915 18C9.3915 15.1957 9.40275 14.8643 9.453 13.7573C9.4995 12.7335 9.6705 12.177 9.8145 11.8073C9.98286 11.3512 10.2512 10.9386 10.5998 10.5998C10.9384 10.2509 11.351 9.98256 11.8073 9.8145C12.177 9.6705 12.7335 9.4995 13.7573 9.453C14.8643 9.40275 15.1957 9.3915 18 9.3915ZM18 7.5C15.1485 7.5 14.79 7.512 13.6702 7.56375C12.5527 7.614 11.79 7.79175 11.1218 8.05125C10.421 8.31479 9.78619 8.72817 9.26175 9.2625C8.72771 9.78703 8.3146 10.4218 8.05125 11.1225C7.79175 11.79 7.614 12.5535 7.56375 13.6702C7.51125 14.7907 7.5 15.1478 7.5 18C7.5 20.8515 7.512 21.2092 7.56375 22.329C7.614 23.4465 7.79175 24.2092 8.05125 24.8775C8.31975 25.5682 8.679 26.154 9.2625 26.7375C9.78702 27.2717 10.4218 27.6851 11.1225 27.9487C11.79 28.2082 12.5535 28.386 13.671 28.4363C14.7908 28.488 15.1485 28.5 18 28.5C20.8515 28.5 21.21 28.488 22.3298 28.437C23.4473 28.386 24.2108 28.2082 24.8783 27.9487C25.579 27.6852 26.2138 27.2718 26.7383 26.7375C27.2723 26.2129 27.6854 25.5782 27.9487 24.8775C28.2082 24.21 28.386 23.4465 28.437 22.329C28.488 21.2092 28.5007 20.8515 28.5007 18C28.5007 15.1485 28.488 14.79 28.437 13.6702C28.386 12.5527 28.209 11.7893 27.9495 11.1218C27.6858 10.4209 27.2721 9.78609 26.7375 9.26175C26.2129 8.72775 25.5782 8.31464 24.8775 8.05125C24.21 7.79175 23.4465 7.614 22.329 7.56375C21.2092 7.51125 20.8515 7.5 18 7.5ZM18 12.6075C16.57 12.6075 15.1986 13.1756 14.1875 14.1867C13.1763 15.1979 12.6083 16.5693 12.6083 17.9993C12.6083 19.4292 13.1763 20.8006 14.1875 21.8118C15.1986 22.8229 16.57 23.391 18 23.391C19.4189 23.3743 20.7739 22.7989 21.7714 21.7896C22.7688 20.7804 23.3282 19.4186 23.3282 17.9996C23.3282 16.5807 22.7688 15.2189 21.7714 14.2096C20.7739 13.2004 19.4189 12.625 18 12.6083V12.6075ZM18 21.4995C17.0718 21.4995 16.1816 21.1308 15.5252 20.4744C14.8689 19.8181 14.5001 18.9278 14.5001 17.9996C14.5001 17.0714 14.8689 16.1812 15.5252 15.5248C16.1816 14.8685 17.0718 14.4998 18 14.4998C18.9282 14.4998 19.8184 14.8685 20.4748 15.5248C21.1311 16.1812 21.4999 17.0714 21.4999 17.9996C21.4999 18.9278 21.1311 19.8181 20.4748 20.4744C19.8184 21.1308 18.9282 21.4995 18 21.4995ZM24.8647 12.3945C24.8647 12.7287 24.732 13.0492 24.4957 13.2855C24.2594 13.5218 23.9389 13.6545 23.6047 13.6545C23.2706 13.6545 22.9501 13.5218 22.7138 13.2855C22.4775 13.0492 22.3447 12.7287 22.3447 12.3945C22.3447 12.0603 22.4775 11.7398 22.7138 11.5035C22.9501 11.2672 23.2706 11.1345 23.6047 11.1345C23.9389 11.1345 24.2594 11.2672 24.4957 11.5035C24.732 11.7398 24.8647 12.0603 24.8647 12.3945Z" fill="white"/>
</g>
</g>
<defs>
<linearGradient id="paint0_linear_1865_2" x1="32.1075" y1="4.242" x2="3.783" y2="31.8638" gradientUnits="userSpaceOnUse">
<stop stop-color="#BA00B2"/>
<stop offset="0.5" stop-color="#F40000"/>
<stop offset="1" stop-color="#FFA800"/>
</linearGradient>
<clipPath id="clip0_1865_2">
<rect width="36" height="36" fill="white"/>
</clipPath>
</defs>
</svg>
