<svg width="36" height="36" viewBox="0 0 36 36" fill="none" xmlns="http://www.w3.org/2000/svg">
<g clip-path="url(#clip0_1865_10)">
<mask id="mask0_1865_10" style="mask-type:luminance" maskUnits="userSpaceOnUse" x="0" y="0" width="36" height="36">
<path d="M0 0H36V36H0V0Z" fill="white"/>
</mask>
<g mask="url(#mask0_1865_10)">
<path d="M18 0C33 0 36 3 36 18C36 33 33 36 18 36C3 36 0 33 0 18C0 3 3 0 18 0Z" fill="url(#paint0_linear_1865_10)"/>
<path d="M8.84423 17.8492C14.0912 15.5632 17.5907 14.0557 19.3412 13.3275C24.34 11.2485 25.3787 10.887 26.056 10.875C26.2045 10.8727 26.5375 10.9095 26.7535 11.085C26.935 11.232 26.986 11.4322 27.0092 11.5725C27.0332 11.712 27.0632 12.0315 27.0392 12.2805C26.7692 15.1267 25.5962 22.0342 25 25.2217C24.748 26.5702 24.2515 27.0225 23.77 27.0667C22.7245 27.1635 21.931 26.3767 20.9185 25.7122C19.3345 24.6742 18.4397 24.0277 16.9015 23.0145C15.124 21.843 16.2767 21.1995 17.2892 20.1472C17.5547 19.872 22.1597 15.6832 22.249 15.303C22.2602 15.2557 22.2707 15.078 22.1657 14.985C22.0607 14.8912 21.9047 14.9235 21.793 14.949C21.634 14.985 19.1027 16.6575 14.2 19.9665C13.4815 20.4607 12.8312 20.7007 12.2485 20.688C11.6057 20.6745 10.369 20.325 9.45023 20.0257C8.32298 19.6597 7.42673 19.4655 7.50473 18.8437C7.54523 18.5197 7.99223 18.1882 8.84423 17.8492Z" fill="white"/>
</g>
</g>
<defs>
<linearGradient id="paint0_linear_1865_10" x1="18" y1="0" x2="18" y2="35.733" gradientUnits="userSpaceOnUse">
<stop stop-color="#2AABEE"/>
<stop offset="1" stop-color="#229ED9"/>
</linearGradient>
<clipPath id="clip0_1865_10">
<rect width="36" height="36" fill="white"/>
</clipPath>
</defs>
</svg>
