<svg width="36" height="36" viewBox="0 0 36 36" fill="none" xmlns="http://www.w3.org/2000/svg">
<g clip-path="url(#clip0_1865_18)">
<mask id="mask0_1865_18" style="mask-type:luminance" maskUnits="userSpaceOnUse" x="0" y="0" width="36" height="36">
<path d="M0 0H36V36H0V0Z" fill="white"/>
</mask>
<g mask="url(#mask0_1865_18)">
<path d="M18 0C33 0 36 3 36 18C36 33 33 36 18 36C3 36 0 33 0 18C0 3 3 0 18 0Z" fill="#FF0000"/>
<path fill-rule="evenodd" clip-rule="evenodd" d="M27.3765 10.2427C27.8818 10.3736 28.3439 10.635 28.7164 11.0007C29.0889 11.3663 29.3588 11.8235 29.499 12.3262C30 14.1645 30 18 30 18C30 18 30 21.8355 29.4983 23.6738C29.3581 24.1765 29.0883 24.6335 28.7159 24.9992C28.3436 25.3648 27.8817 25.6262 27.3765 25.7572C25.5045 26.25 18 26.25 18 26.25C18 26.25 10.4948 26.25 8.6235 25.7572C8.11822 25.6263 7.65621 25.3649 7.28371 24.9993C6.91121 24.6336 6.6413 24.1765 6.501 23.6738C6 21.8355 6 18 6 18C6 18 6 14.1645 6.50175 12.3262C6.64199 11.8236 6.91179 11.3666 7.28415 11.0009C7.6565 10.6353 8.11836 10.3738 8.6235 10.2427C10.494 9.75 18 9.75 18 9.75C18 9.75 25.5045 9.75 27.3765 10.2427ZM21.75 18L15.75 21.5625V14.4375L21.75 18Z" fill="white"/>
</g>
</g>
<defs>
<clipPath id="clip0_1865_18">
<rect width="36" height="36" fill="white"/>
</clipPath>
</defs>
</svg>
